# xmcd
#
# Track frame offsets:
#	150
#	21997
#	43844
#	65691
#	87538
#	109038
#	130538
#	152038
#	174100
#	194319
#	214538
#	234757
#	249544
#	264331
#	279118
#	293905
#	304655
#	315405
#	326155
#	336905
#
# Disc length: 4703 seconds
#
# Revision: 0
# Processed by: cddbd v1.4PL0 Copyright (c) Steve Scherf et al.
# Submitted via: audiograbber 1.81.01
#
DISCID=14125d14
DTITLE=Thomas Diederich - Übungs-CD
DYEAR=2003
DGENRE=
TTITLE0=Thomas Diederich - Slow Blues Drums
TTITLE1=Thomas Diederich - Slow Blues Bass
TTITLE2=Thomas Diederich - Slow Blues RTM BAS
TTITLE3=Thomas Diederich - Slow Blues Alles
TTITLE4=Thomas Diederich - Blues 120 Drums
TTITLE5=Thomas Diederich - Blues 120 Bass
TTITLE6=Thomas Diederich - Blues 120 Bas Rtm
TTITLE7=Thomas Diederich - Blues 120 Alles
TTITLE8=Thomas Diederich - Dyer_Maker_Drums
TTITLE9=Thomas Diederich - Dyer_Maker_Bass
TTITLE10=Thomas Diederich - Dyer_Maker_Alles
TTITLE11=Thomas Diederich - Rainbow_Drums
TTITLE12=Thomas Diederich - Rainbow_Bass
TTITLE13=Thomas Diederich - Rainbow_Bas_Rtm
TTITLE14=Thomas Diederich - Rainbow_Alles
TTITLE15=Thomas Diederich - Leaving_the_city_Drums
TTITLE16=Thomas Diederich - Leaving_the_city_Bass
TTITLE17=Thomas Diederich - Leaving_the_city_Bas_Rtm
TTITLE18=Thomas Diederich - Leaving_the_city_Alles
TTITLE19=Thomas Diederich - Whole_lotta_Drums
EXTD=
EXTT0=
EXTT1=
EXTT2=
EXTT3=
EXTT4=
EXTT5=
EXTT6=
EXTT7=
EXTT8=
EXTT9=
EXTT10=
EXTT11=
EXTT12=
EXTT13=
EXTT14=
EXTT15=
EXTT16=
EXTT17=
EXTT18=
EXTT19=
PLAYORDER=
